<svg width="10" height="16" viewBox="0 0 10 16" fill="none" xmlns="http://www.w3.org/2000/svg">
<path d="M0.382399 15.6478C0.137549 15.4222 -3.86259e-08 15.1163 -5.2568e-08 14.7974C-6.65101e-08 14.4784 0.137549 14.1725 0.382399 13.947L6.84743 7.99274L0.382398 2.03852C0.144488 1.81166 0.0128429 1.50781 0.0158186 1.19242C0.0187944 0.877029 0.156152 0.575334 0.398308 0.352312C0.640463 0.12929 0.968041 0.00278564 1.31049 4.57191e-05C1.65293 -0.00269516 1.98285 0.118547 2.22918 0.33766L9.6176 7.14231C9.86245 7.36788 10 7.67378 10 7.99274C10 8.3117 9.86245 8.6176 9.6176 8.84317L2.22918 15.6478C1.98425 15.8733 1.65211 16 1.30579 16C0.959466 16 0.627323 15.8733 0.382399 15.6478Z" fill="#141414"/>
</svg>
