<svg width="6" height="10" viewBox="0 0 6 10" fill="none" xmlns="http://www.w3.org/2000/svg">
<path d="M5.77056 0.220115C5.91747 0.361098 6 0.552285 6 0.751634C6 0.950983 5.91747 1.14217 5.77056 1.28315L1.89154 5.00454L5.77056 8.72592C5.91331 8.86771 5.99229 9.05762 5.99051 9.25474C5.98872 9.45186 5.90631 9.64042 5.76102 9.77981C5.61572 9.91919 5.41918 9.99826 5.21371 9.99997C5.00824 10.0017 4.81029 9.92591 4.66249 9.78896L0.229439 5.53606C0.0825293 5.39508 -2.49368e-07 5.20389 -2.58082e-07 5.00454C-2.66796e-07 4.80519 0.0825293 4.614 0.229439 4.47302L4.66249 0.220115C4.80945 0.0791757 5.00873 4.33296e-08 5.21653 3.42467e-08C5.42432 2.51638e-08 5.62361 0.0791756 5.77056 0.220115Z" fill="#00838F"/>
</svg>
