<svg width="18" height="18" viewBox="0 0 18 18" fill="none" xmlns="http://www.w3.org/2000/svg">
<path d="M5.625 8.4762C5.625 8.77456 5.50647 9.06071 5.2955 9.27169C5.08452 9.48267 4.79837 9.6012 4.5 9.6012C4.20163 9.6012 3.91548 9.48267 3.7045 9.27169C3.49353 9.06071 3.375 8.77456 3.375 8.4762C3.375 8.17783 3.49353 7.89168 3.7045 7.6807C3.91548 7.46972 4.20163 7.3512 4.5 7.3512C4.79837 7.3512 5.08452 7.46972 5.2955 7.6807C5.50647 7.89168 5.625 8.17783 5.625 8.4762ZM10.125 8.4762C10.125 8.77456 10.0065 9.06071 9.7955 9.27169C9.58452 9.48267 9.29837 9.6012 9 9.6012C8.70163 9.6012 8.41548 9.48267 8.2045 9.27169C7.99353 9.06071 7.875 8.77456 7.875 8.4762C7.875 8.17783 7.99353 7.89168 8.2045 7.6807C8.41548 7.46972 8.70163 7.3512 9 7.3512C9.29837 7.3512 9.58452 7.46972 9.7955 7.6807C10.0065 7.89168 10.125 8.17783 10.125 8.4762ZM13.5 9.6012C13.7984 9.6012 14.0845 9.48267 14.2955 9.27169C14.5065 9.06071 14.625 8.77456 14.625 8.4762C14.625 8.17783 14.5065 7.89168 14.2955 7.6807C14.0845 7.46972 13.7984 7.3512 13.5 7.3512C13.2016 7.3512 12.9155 7.46972 12.7045 7.6807C12.4935 7.89168 12.375 8.17783 12.375 8.4762C12.375 8.77456 12.4935 9.06071 12.7045 9.27169C12.9155 9.48267 13.2016 9.6012 13.5 9.6012Z" fill="#00838F"/>
<path d="M2.43563 17.2546L2.45812 17.2501C4.51687 16.8417 5.77462 16.3028 6.35962 16.0069C7.22091 16.2367 8.10861 16.3524 9 16.3512C13.9703 16.3512 18 12.8254 18 8.4762C18 4.12695 13.9703 0.601196 9 0.601196C4.02975 0.601196 0 4.12695 0 8.4762C0 10.4562 0.835875 12.2674 2.21625 13.6512C2.11968 14.5401 1.9219 15.415 1.62675 16.2589L1.62337 16.2713C1.5395 16.513 1.44795 16.752 1.34888 16.9879C1.26 17.1972 1.43212 17.4312 1.656 17.3952C1.91662 17.3525 2.17653 17.3057 2.43563 17.2546ZM3.33562 13.7581C3.35138 13.5934 3.33062 13.4272 3.27481 13.2715C3.219 13.1157 3.12952 12.9742 3.01275 12.8569C1.82025 11.6599 1.125 10.1277 1.125 8.4762C1.125 4.8852 4.5045 1.7262 9 1.7262C13.4955 1.7262 16.875 4.8852 16.875 8.4762C16.875 12.0683 13.4955 15.2262 9 15.2262C8.20699 15.2274 7.41725 15.1245 6.651 14.9202C6.38322 14.8484 6.09839 14.8781 5.85113 15.0034C5.41575 15.2239 4.45612 15.6447 2.88787 16.0081C3.10666 15.2736 3.25656 14.5203 3.33562 13.7581Z" fill="#00838F"/>
</svg>
