<svg width="50" height="50" viewBox="0 0 50 50" fill="none" xmlns="http://www.w3.org/2000/svg">
<circle cx="25" cy="25" r="25" fill="#00838F" fill-opacity="0.1"/>
<path d="M35.6195 15.1896L36.977 20.8813C36.992 20.9426 36.9995 21.007 36.9995 21.0714C36.9995 23.2369 35.402 25 33.437 25C32.294 25 31.277 24.4044 30.6245 23.4804C29.972 24.4044 28.955 25 27.812 25C26.669 25 25.652 24.4044 24.9995 23.4804C24.347 24.4044 23.3285 25 22.187 25C21.0455 25 20.027 24.4044 19.3745 23.4804C18.722 24.4044 17.7035 25 16.562 25C14.597 25 12.9995 23.2369 12.9995 21.0714C12.9995 21.007 13.007 20.9426 13.022 20.8813L14.3795 15.1896C14.5475 14.4903 15.1475 14 15.836 14H34.1645C34.853 14 35.453 14.4903 35.6195 15.1896Z" fill="#00838F"/>
<path d="M25.0891 30.4046H24.229V29.2105H25.0891C25.3042 29.2105 25.468 29.2619 25.5806 29.3648C25.6984 29.4677 25.7573 29.6166 25.7573 29.8116C25.7573 30.0065 25.6984 30.1554 25.5806 30.2583C25.468 30.3558 25.3042 30.4046 25.0891 30.4046Z" fill="#00838F"/>
<path d="M25.7035 32.5247C25.5858 32.6276 25.4168 32.679 25.1966 32.679H24.229V31.4199H25.1813C25.4014 31.4199 25.573 31.4768 25.6958 31.5905C25.8238 31.7042 25.8878 31.8613 25.8878 32.0617C25.8878 32.262 25.8264 32.4164 25.7035 32.5247Z" fill="#00838F"/>
<path fill-rule="evenodd" clip-rule="evenodd" d="M30.6245 25.6474C31.445 26.2446 32.4155 26.5714 33.437 26.5714C34.1735 26.5714 34.868 26.3907 35.4995 26.0827V34.4286C35.4995 35.296 34.8275 36 33.9995 36H15.9995C15.1715 36 14.4995 35.296 14.4995 34.4286V26.0827C15.131 26.3907 15.8255 26.5714 16.562 26.5714C17.5835 26.5714 18.554 26.2446 19.3745 25.6474C21.0155 26.8433 23.3585 26.8433 24.9995 25.6474C26.6405 26.8433 28.9835 26.8433 30.6245 25.6474ZM26.9323 31.3712C26.7429 31.1113 26.492 30.9461 26.1797 30.8757C26.4562 30.789 26.6763 30.6347 26.8402 30.4127C27.0091 30.1906 27.0936 29.9118 27.0936 29.576C27.0936 29.1211 26.9374 28.761 26.6251 28.4956C26.3179 28.2303 25.8904 28.0976 25.3426 28.0976H22.9157V33.8H25.427C25.9902 33.8 26.428 33.6619 26.7403 33.3857C27.0578 33.1041 27.2165 32.725 27.2165 32.2485C27.2165 31.9182 27.1218 31.6257 26.9323 31.3712Z" fill="#00838F"/>
</svg>
