<svg width="12" height="15" viewBox="0 0 12 15" fill="none" xmlns="http://www.w3.org/2000/svg">
<path d="M9.64525 8.3294C9.18675 9.26646 8.5655 10.2 7.93025 11.0382C7.32764 11.8285 6.68329 12.5854 6 13.3059C5.3167 12.5855 4.67235 11.8285 4.06975 11.0382C3.4345 10.2 2.81325 9.26646 2.35475 8.3294C1.891 7.38263 1.625 6.49587 1.625 5.73528C1.625 4.56521 2.08594 3.44306 2.90641 2.61569C3.72688 1.78832 4.83968 1.32351 6 1.32351C7.16032 1.32351 8.27312 1.78832 9.09359 2.61569C9.91406 3.44306 10.375 4.56521 10.375 5.73528C10.375 6.49587 10.1081 7.38263 9.64525 8.3294ZM6 14.5588C6 14.5588 11.25 9.54175 11.25 5.73528C11.25 4.33119 10.6969 2.98461 9.71231 1.99177C8.72774 0.998934 7.39239 0.441162 6 0.441162C4.60761 0.441162 3.27226 0.998934 2.28769 1.99177C1.30312 2.98461 0.75 4.33119 0.75 5.73528C0.75 9.54175 6 14.5588 6 14.5588Z" fill="#00838F"/>
<path d="M6 7.49999C5.53587 7.49999 5.09075 7.31406 4.76256 6.98311C4.43437 6.65217 4.25 6.20331 4.25 5.73528C4.25 5.26725 4.43437 4.81839 4.76256 4.48744C5.09075 4.1565 5.53587 3.97057 6 3.97057C6.46413 3.97057 6.90925 4.1565 7.23744 4.48744C7.56563 4.81839 7.75 5.26725 7.75 5.73528C7.75 6.20331 7.56563 6.65217 7.23744 6.98311C6.90925 7.31406 6.46413 7.49999 6 7.49999ZM6 8.38234C6.69619 8.38234 7.36387 8.10345 7.85616 7.60703C8.34844 7.11061 8.625 6.43732 8.625 5.73528C8.625 5.03324 8.34844 4.35995 7.85616 3.86353C7.36387 3.36711 6.69619 3.08822 6 3.08822C5.30381 3.08822 4.63613 3.36711 4.14384 3.86353C3.65156 4.35995 3.375 5.03324 3.375 5.73528C3.375 6.43732 3.65156 7.11061 4.14384 7.60703C4.63613 8.10345 5.30381 8.38234 6 8.38234Z" fill="#00838F"/>
<path d="M9.64525 8.3294C9.18675 9.26646 8.5655 10.2 7.93025 11.0382C7.32764 11.8285 6.68329 12.5854 6 13.3059C5.3167 12.5855 4.67235 11.8285 4.06975 11.0382C3.4345 10.2 2.81325 9.26646 2.35475 8.3294C1.891 7.38263 1.625 6.49587 1.625 5.73528C1.625 4.56521 2.08594 3.44306 2.90641 2.61569C3.72688 1.78832 4.83968 1.32351 6 1.32351C7.16032 1.32351 8.27312 1.78832 9.09359 2.61569C9.91406 3.44306 10.375 4.56521 10.375 5.73528C10.375 6.49587 10.1081 7.38263 9.64525 8.3294ZM6 14.5588C6 14.5588 11.25 9.54175 11.25 5.73528C11.25 4.33119 10.6969 2.98461 9.71231 1.99177C8.72774 0.998934 7.39239 0.441162 6 0.441162C4.60761 0.441162 3.27226 0.998934 2.28769 1.99177C1.30312 2.98461 0.75 4.33119 0.75 5.73528C0.75 9.54175 6 14.5588 6 14.5588Z" stroke="#00838F" stroke-width="0.3"/>
<path d="M6 7.49999C5.53587 7.49999 5.09075 7.31406 4.76256 6.98311C4.43437 6.65217 4.25 6.20331 4.25 5.73528C4.25 5.26725 4.43437 4.81839 4.76256 4.48744C5.09075 4.1565 5.53587 3.97057 6 3.97057C6.46413 3.97057 6.90925 4.1565 7.23744 4.48744C7.56563 4.81839 7.75 5.26725 7.75 5.73528C7.75 6.20331 7.56563 6.65217 7.23744 6.98311C6.90925 7.31406 6.46413 7.49999 6 7.49999ZM6 8.38234C6.69619 8.38234 7.36387 8.10345 7.85616 7.60703C8.34844 7.11061 8.625 6.43732 8.625 5.73528C8.625 5.03324 8.34844 4.35995 7.85616 3.86353C7.36387 3.36711 6.69619 3.08822 6 3.08822C5.30381 3.08822 4.63613 3.36711 4.14384 3.86353C3.65156 4.35995 3.375 5.03324 3.375 5.73528C3.375 6.43732 3.65156 7.11061 4.14384 7.60703C4.63613 8.10345 5.30381 8.38234 6 8.38234Z" stroke="#00838F" stroke-width="0.3"/>
</svg>
