<svg width="10" height="12" viewBox="0 0 10 12" fill="none" xmlns="http://www.w3.org/2000/svg">
<path d="M3.125 5.25C3.02554 5.25 2.93016 5.28951 2.85984 5.35984C2.78951 5.43016 2.75 5.52554 2.75 5.625C2.75 5.72446 2.78951 5.81984 2.85984 5.89016C2.93016 5.96049 3.02554 6 3.125 6H6.875C6.97446 6 7.06984 5.96049 7.14017 5.89016C7.21049 5.81984 7.25 5.72446 7.25 5.625C7.25 5.52554 7.21049 5.43016 7.14017 5.35984C7.06984 5.28951 6.97446 5.25 6.875 5.25H3.125ZM2.75 7.125C2.75 7.02554 2.78951 6.93016 2.85984 6.85983C2.93016 6.78951 3.02554 6.75 3.125 6.75H6.875C6.97446 6.75 7.06984 6.78951 7.14017 6.85983C7.21049 6.93016 7.25 7.02554 7.25 7.125C7.25 7.22446 7.21049 7.31984 7.14017 7.39017C7.06984 7.46049 6.97446 7.5 6.875 7.5H3.125C3.02554 7.5 2.93016 7.46049 2.85984 7.39017C2.78951 7.31984 2.75 7.22446 2.75 7.125ZM2.75 8.625C2.75 8.52554 2.78951 8.43016 2.85984 8.35983C2.93016 8.28951 3.02554 8.25 3.125 8.25H4.625C4.72446 8.25 4.81984 8.28951 4.89016 8.35983C4.96049 8.43016 5 8.52554 5 8.625C5 8.72446 4.96049 8.81984 4.89016 8.89017C4.81984 8.96049 4.72446 9 4.625 9H3.125C3.02554 9 2.93016 8.96049 2.85984 8.89017C2.78951 8.81984 2.75 8.72446 2.75 8.625Z" fill="#00838F"/>
<path d="M6.125 0H2C1.60218 0 1.22064 0.158035 0.93934 0.43934C0.658035 0.720644 0.5 1.10218 0.5 1.5V10.5C0.5 10.8978 0.658035 11.2794 0.93934 11.5607C1.22064 11.842 1.60218 12 2 12H8C8.39782 12 8.77936 11.842 9.06066 11.5607C9.34196 11.2794 9.5 10.8978 9.5 10.5V3.375L6.125 0ZM6.125 0.75V2.25C6.125 2.54837 6.24353 2.83452 6.4545 3.0455C6.66548 3.25647 6.95163 3.375 7.25 3.375H8.75V10.5C8.75 10.6989 8.67098 10.8897 8.53033 11.0303C8.38968 11.171 8.19891 11.25 8 11.25H2C1.80109 11.25 1.61032 11.171 1.46967 11.0303C1.32902 10.8897 1.25 10.6989 1.25 10.5V1.5C1.25 1.30109 1.32902 1.11032 1.46967 0.96967C1.61032 0.829018 1.80109 0.75 2 0.75H6.125Z" fill="#00838F"/>
<path d="M3.125 5.25C3.02554 5.25 2.93016 5.28951 2.85984 5.35984C2.78951 5.43016 2.75 5.52554 2.75 5.625C2.75 5.72446 2.78951 5.81984 2.85984 5.89016C2.93016 5.96049 3.02554 6 3.125 6H6.875C6.97446 6 7.06984 5.96049 7.14017 5.89016C7.21049 5.81984 7.25 5.72446 7.25 5.625C7.25 5.52554 7.21049 5.43016 7.14017 5.35984C7.06984 5.28951 6.97446 5.25 6.875 5.25H3.125ZM2.75 7.125C2.75 7.02554 2.78951 6.93016 2.85984 6.85983C2.93016 6.78951 3.02554 6.75 3.125 6.75H6.875C6.97446 6.75 7.06984 6.78951 7.14017 6.85983C7.21049 6.93016 7.25 7.02554 7.25 7.125C7.25 7.22446 7.21049 7.31984 7.14017 7.39017C7.06984 7.46049 6.97446 7.5 6.875 7.5H3.125C3.02554 7.5 2.93016 7.46049 2.85984 7.39017C2.78951 7.31984 2.75 7.22446 2.75 7.125ZM2.75 8.625C2.75 8.52554 2.78951 8.43016 2.85984 8.35983C2.93016 8.28951 3.02554 8.25 3.125 8.25H4.625C4.72446 8.25 4.81984 8.28951 4.89016 8.35983C4.96049 8.43016 5 8.52554 5 8.625C5 8.72446 4.96049 8.81984 4.89016 8.89017C4.81984 8.96049 4.72446 9 4.625 9H3.125C3.02554 9 2.93016 8.96049 2.85984 8.89017C2.78951 8.81984 2.75 8.72446 2.75 8.625Z" stroke="#00838F" stroke-width="0.2"/>
<path d="M6.125 0H2C1.60218 0 1.22064 0.158035 0.93934 0.43934C0.658035 0.720644 0.5 1.10218 0.5 1.5V10.5C0.5 10.8978 0.658035 11.2794 0.93934 11.5607C1.22064 11.842 1.60218 12 2 12H8C8.39782 12 8.77936 11.842 9.06066 11.5607C9.34196 11.2794 9.5 10.8978 9.5 10.5V3.375L6.125 0ZM6.125 0.75V2.25C6.125 2.54837 6.24353 2.83452 6.4545 3.0455C6.66548 3.25647 6.95163 3.375 7.25 3.375H8.75V10.5C8.75 10.6989 8.67098 10.8897 8.53033 11.0303C8.38968 11.171 8.19891 11.25 8 11.25H2C1.80109 11.25 1.61032 11.171 1.46967 11.0303C1.32902 10.8897 1.25 10.6989 1.25 10.5V1.5C1.25 1.30109 1.32902 1.11032 1.46967 0.96967C1.61032 0.829018 1.80109 0.75 2 0.75H6.125Z" stroke="#00838F" stroke-width="0.2"/>
</svg>
