<svg width="16" height="10" viewBox="0 0 16 10" fill="none" xmlns="http://www.w3.org/2000/svg">
<path d="M7.05864 0.426224L1.06364 7.27747C0.356142 8.08622 0.931142 9.35122 2.00489 9.35122H13.9949C14.2352 9.35143 14.4705 9.28236 14.6725 9.1523C14.8746 9.02223 15.0349 8.83668 15.1342 8.61786C15.2335 8.39904 15.2677 8.15623 15.2325 7.9185C15.1974 7.68078 15.0945 7.45822 14.9361 7.27747L8.94114 0.427474C8.82382 0.293213 8.67912 0.185605 8.51678 0.111875C8.35443 0.0381452 8.17819 0 7.99989 0C7.82159 0 7.64535 0.0381452 7.48301 0.111875C7.32066 0.185605 7.17597 0.293213 7.05864 0.427474V0.426224Z" fill="#1E891E"/>
</svg>
