<svg width="20" height="18" viewBox="0 0 20 18" fill="none" xmlns="http://www.w3.org/2000/svg">
<path d="M7.47662 1.08001C7.54001 1.11797 7.5953 1.16805 7.63934 1.22738C7.68337 1.28671 7.71528 1.35414 7.73325 1.4258C7.75122 1.49747 7.75489 1.57198 7.74406 1.64506C7.73323 1.71815 7.70811 1.78839 7.67013 1.85176L4.80587 6.62514H15.1941L12.3287 1.85176C12.2521 1.72376 12.2294 1.57054 12.2657 1.42581C12.302 1.28108 12.3942 1.15669 12.5222 1.08001C12.6502 1.00333 12.8035 0.980641 12.9482 1.01693C13.0929 1.05322 13.2173 1.14551 13.294 1.27351L16.5059 6.62514H17.875C18.1734 6.62514 18.4595 6.74367 18.6705 6.95464C18.8815 7.16562 19 7.45177 19 7.75014V8.87514C19 9.17351 18.8815 9.45966 18.6705 9.67063C18.4595 9.88161 18.1734 10.0001 17.875 10.0001V15.0626C17.875 15.8086 17.5787 16.5239 17.0512 17.0514C16.5238 17.5788 15.8084 17.8751 15.0625 17.8751H4.9375C4.19158 17.8751 3.47621 17.5788 2.94876 17.0514C2.42132 16.5239 2.125 15.8086 2.125 15.0626V10.0001C1.82663 10.0001 1.54048 9.88161 1.3295 9.67063C1.11853 9.45966 1 9.17351 1 8.87514V7.75014C1 7.45177 1.11853 7.16562 1.3295 6.95464C1.54048 6.74367 1.82663 6.62514 2.125 6.62514H3.49412L6.70375 1.27351C6.74171 1.21012 6.79178 1.15483 6.85112 1.1108C6.91045 1.06677 6.97787 1.03486 7.04954 1.01689C7.12121 0.998919 7.19571 0.995246 7.2688 1.00608C7.34189 1.01691 7.41212 1.04203 7.4755 1.08001H7.47662ZM3.25 10.0001V15.0626C3.25 15.5102 3.42779 15.9394 3.74426 16.2559C4.06072 16.5723 4.48995 16.7501 4.9375 16.7501H15.0625C15.5101 16.7501 15.9393 16.5723 16.2557 16.2559C16.5722 15.9394 16.75 15.5102 16.75 15.0626V10.0001H3.25ZM2.125 7.75014V8.87514H17.875V7.75014H2.125ZM5.5 11.1251C5.64918 11.1251 5.79226 11.1844 5.89775 11.2899C6.00324 11.3954 6.0625 11.5385 6.0625 11.6876V15.0626C6.0625 15.2118 6.00324 15.3549 5.89775 15.4604C5.79226 15.5659 5.64918 15.6251 5.5 15.6251C5.35082 15.6251 5.20774 15.5659 5.10225 15.4604C4.99676 15.3549 4.9375 15.2118 4.9375 15.0626V11.6876C4.9375 11.5385 4.99676 11.3954 5.10225 11.2899C5.20774 11.1844 5.35082 11.1251 5.5 11.1251ZM7.75 11.1251C7.89918 11.1251 8.04226 11.1844 8.14775 11.2899C8.25324 11.3954 8.3125 11.5385 8.3125 11.6876V15.0626C8.3125 15.2118 8.25324 15.3549 8.14775 15.4604C8.04226 15.5659 7.89918 15.6251 7.75 15.6251C7.60082 15.6251 7.45774 15.5659 7.35225 15.4604C7.24676 15.3549 7.1875 15.2118 7.1875 15.0626V11.6876C7.1875 11.5385 7.24676 11.3954 7.35225 11.2899C7.45774 11.1844 7.60082 11.1251 7.75 11.1251ZM10 11.1251C10.1492 11.1251 10.2923 11.1844 10.3977 11.2899C10.5032 11.3954 10.5625 11.5385 10.5625 11.6876V15.0626C10.5625 15.2118 10.5032 15.3549 10.3977 15.4604C10.2923 15.5659 10.1492 15.6251 10 15.6251C9.85082 15.6251 9.70774 15.5659 9.60225 15.4604C9.49676 15.3549 9.4375 15.2118 9.4375 15.0626V11.6876C9.4375 11.5385 9.49676 11.3954 9.60225 11.2899C9.70774 11.1844 9.85082 11.1251 10 11.1251ZM12.25 11.1251C12.3992 11.1251 12.5423 11.1844 12.6477 11.2899C12.7532 11.3954 12.8125 11.5385 12.8125 11.6876V15.0626C12.8125 15.2118 12.7532 15.3549 12.6477 15.4604C12.5423 15.5659 12.3992 15.6251 12.25 15.6251C12.1008 15.6251 11.9577 15.5659 11.8523 15.4604C11.7468 15.3549 11.6875 15.2118 11.6875 15.0626V11.6876C11.6875 11.5385 11.7468 11.3954 11.8523 11.2899C11.9577 11.1844 12.1008 11.1251 12.25 11.1251ZM14.5 11.1251C14.6492 11.1251 14.7923 11.1844 14.8977 11.2899C15.0032 11.3954 15.0625 11.5385 15.0625 11.6876V15.0626C15.0625 15.2118 15.0032 15.3549 14.8977 15.4604C14.7923 15.5659 14.6492 15.6251 14.5 15.6251C14.3508 15.6251 14.2077 15.5659 14.1023 15.4604C13.9968 15.3549 13.9375 15.2118 13.9375 15.0626V11.6876C13.9375 11.5385 13.9968 11.3954 14.1023 11.2899C14.2077 11.1844 14.3508 11.1251 14.5 11.1251Z" fill="#006973" stroke="#006973" stroke-width="0.2"/>
</svg>
