<svg width="14" height="16" viewBox="0 0 14 16" fill="none" xmlns="http://www.w3.org/2000/svg">
<path d="M7.5 6.5C7.5 6.36739 7.44732 6.24021 7.35355 6.14645C7.25979 6.05268 7.13261 6 7 6C6.86739 6 6.74021 6.05268 6.64645 6.14645C6.55268 6.24021 6.5 6.36739 6.5 6.5V10.293L5.354 9.146C5.30751 9.09951 5.25232 9.06264 5.19158 9.03748C5.13084 9.01232 5.06574 8.99937 5 8.99937C4.93426 8.99937 4.86916 9.01232 4.80842 9.03748C4.74768 9.06264 4.69249 9.09951 4.646 9.146C4.59951 9.19249 4.56264 9.24768 4.53748 9.30842C4.51232 9.36916 4.49937 9.43426 4.49937 9.5C4.49937 9.56574 4.51232 9.63084 4.53748 9.69158C4.56264 9.75232 4.59951 9.80751 4.646 9.854L6.646 11.854C6.69245 11.9006 6.74762 11.9375 6.80837 11.9627C6.86911 11.9879 6.93423 12.0009 7 12.0009C7.06577 12.0009 7.13089 11.9879 7.19163 11.9627C7.25238 11.9375 7.30755 11.9006 7.354 11.854L9.354 9.854C9.40049 9.80751 9.43736 9.75232 9.46252 9.69158C9.48768 9.63084 9.50063 9.56574 9.50063 9.5C9.50063 9.43426 9.48768 9.36916 9.46252 9.30842C9.43736 9.24768 9.40049 9.19249 9.354 9.146C9.30751 9.09951 9.25232 9.06264 9.19158 9.03748C9.13084 9.01232 9.06574 8.99937 9 8.99937C8.93426 8.99937 8.86916 9.01232 8.80842 9.03748C8.74768 9.06264 8.69249 9.09951 8.646 9.146L7.5 10.293V6.5Z" fill="white"/>
<path d="M13 14V4.5L8.5 0H3C2.46957 0 1.96086 0.210714 1.58579 0.585786C1.21071 0.960859 1 1.46957 1 2V14C1 14.5304 1.21071 15.0391 1.58579 15.4142C1.96086 15.7893 2.46957 16 3 16H11C11.5304 16 12.0391 15.7893 12.4142 15.4142C12.7893 15.0391 13 14.5304 13 14ZM8.5 3C8.5 3.39782 8.65804 3.77936 8.93934 4.06066C9.22064 4.34196 9.60218 4.5 10 4.5H12V14C12 14.2652 11.8946 14.5196 11.7071 14.7071C11.5196 14.8946 11.2652 15 11 15H3C2.73478 15 2.48043 14.8946 2.29289 14.7071C2.10536 14.5196 2 14.2652 2 14V2C2 1.73478 2.10536 1.48043 2.29289 1.29289C2.48043 1.10536 2.73478 1 3 1H8.5V3Z" fill="white"/>
<path d="M7.5 6.5C7.5 6.36739 7.44732 6.24021 7.35355 6.14645C7.25979 6.05268 7.13261 6 7 6C6.86739 6 6.74021 6.05268 6.64645 6.14645C6.55268 6.24021 6.5 6.36739 6.5 6.5V10.293L5.354 9.146C5.30751 9.09951 5.25232 9.06264 5.19158 9.03748C5.13084 9.01232 5.06574 8.99937 5 8.99937C4.93426 8.99937 4.86916 9.01232 4.80842 9.03748C4.74768 9.06264 4.69249 9.09951 4.646 9.146C4.59951 9.19249 4.56264 9.24768 4.53748 9.30842C4.51232 9.36916 4.49937 9.43426 4.49937 9.5C4.49937 9.56574 4.51232 9.63084 4.53748 9.69158C4.56264 9.75232 4.59951 9.80751 4.646 9.854L6.646 11.854C6.69245 11.9006 6.74762 11.9375 6.80837 11.9627C6.86911 11.9879 6.93423 12.0009 7 12.0009C7.06577 12.0009 7.13089 11.9879 7.19163 11.9627C7.25238 11.9375 7.30755 11.9006 7.354 11.854L9.354 9.854C9.40049 9.80751 9.43736 9.75232 9.46252 9.69158C9.48768 9.63084 9.50063 9.56574 9.50063 9.5C9.50063 9.43426 9.48768 9.36916 9.46252 9.30842C9.43736 9.24768 9.40049 9.19249 9.354 9.146C9.30751 9.09951 9.25232 9.06264 9.19158 9.03748C9.13084 9.01232 9.06574 8.99937 9 8.99937C8.93426 8.99937 8.86916 9.01232 8.80842 9.03748C8.74768 9.06264 8.69249 9.09951 8.646 9.146L7.5 10.293V6.5Z" stroke="white" stroke-width="0.6"/>
<path d="M13 14V4.5L8.5 0H3C2.46957 0 1.96086 0.210714 1.58579 0.585786C1.21071 0.960859 1 1.46957 1 2V14C1 14.5304 1.21071 15.0391 1.58579 15.4142C1.96086 15.7893 2.46957 16 3 16H11C11.5304 16 12.0391 15.7893 12.4142 15.4142C12.7893 15.0391 13 14.5304 13 14ZM8.5 3C8.5 3.39782 8.65804 3.77936 8.93934 4.06066C9.22064 4.34196 9.60218 4.5 10 4.5H12V14C12 14.2652 11.8946 14.5196 11.7071 14.7071C11.5196 14.8946 11.2652 15 11 15H3C2.73478 15 2.48043 14.8946 2.29289 14.7071C2.10536 14.5196 2 14.2652 2 14V2C2 1.73478 2.10536 1.48043 2.29289 1.29289C2.48043 1.10536 2.73478 1 3 1H8.5V3Z" stroke="white" stroke-width="0.6"/>
</svg>
