<svg width="17" height="17" viewBox="0 0 17 17" fill="none" xmlns="http://www.w3.org/2000/svg">
<path d="M5.66667 16.25H1.88889C1.26421 16.25 0.75 15.7358 0.75 15.1111V1.88889C0.75 1.26421 1.26421 0.75 1.88889 0.75H5.66667C6.29134 0.75 6.80556 1.26421 6.80556 1.88889V15.1111C6.80556 15.7358 6.29134 16.25 5.66667 16.25ZM15.1111 16.25H11.3333C10.7087 16.25 10.1944 15.7358 10.1944 15.1111V10.3889C10.1944 9.76421 10.7087 9.25 11.3333 9.25H15.1111C15.7358 9.25 16.25 9.76421 16.25 10.3889V15.1111C16.25 15.7358 15.7358 16.25 15.1111 16.25ZM16.25 1.88889V4.72222C16.25 5.3469 15.7358 5.86111 15.1111 5.86111H11.3333C10.7087 5.86111 10.1944 5.3469 10.1944 4.72222V1.88889C10.1944 1.26421 10.7087 0.75 11.3333 0.75H15.1111C15.7358 0.75 16.25 1.26421 16.25 1.88889Z" stroke="#006973" stroke-width="1.5"/>
</svg>
