<svg width="20" height="20" viewBox="0 0 20 20" fill="none" xmlns="http://www.w3.org/2000/svg">
<path fill-rule="evenodd" clip-rule="evenodd" d="M14.2172 1H5.77957C2.8422 1 1 3.0815 1 6.0272V13.9728C1 16.9185 2.8344 19 5.77957 19H14.2123C17.1624 19 18.9958 16.9185 18.9958 13.9728V6.0272C18.9997 3.0815 17.1653 1 14.2172 1Z" fill="#9E9E9E"/>
<path fill-rule="evenodd" clip-rule="evenodd" d="M8.75629 6.88697C8.75629 7.88188 7.95075 8.68756 6.95603 8.68756C5.96227 8.68756 5.15576 7.88188 5.15576 6.88697C5.15576 5.89206 5.96227 5.08639 6.95603 5.08639C7.94978 5.08736 8.75531 5.89304 8.75629 6.88697Z" fill="#9E9E9E"/>
<path fill-rule="evenodd" clip-rule="evenodd" d="M19.0001 12.9009C18.0999 11.9742 16.3689 10.1024 14.4867 10.1024C12.6036 10.1024 11.5182 14.2313 9.70716 14.2313C7.89617 14.2313 6.25097 12.3644 4.79983 13.5612C3.3487 14.757 1.97559 17.2024 1.97559 17.2024" fill="#9E9E9E"/>
<path d="M19.0001 12.9009C18.0999 11.9742 16.3689 10.1024 14.4867 10.1024C12.6036 10.1024 11.5182 14.2313 9.70716 14.2313C7.89617 14.2313 6.25097 12.3644 4.79983 13.5612C3.3487 14.757 1.97559 17.2024 1.97559 17.2024M14.2172 1H5.77957C2.8422 1 1 3.0815 1 6.0272V13.9728C1 16.9185 2.8344 19 5.77957 19H14.2123C17.1624 19 18.9958 16.9185 18.9958 13.9728V6.0272C18.9997 3.0815 17.1653 1 14.2172 1ZM8.75629 6.88697C8.75629 7.88188 7.95075 8.68756 6.95603 8.68756C5.96227 8.68756 5.15576 7.88188 5.15576 6.88697C5.15576 5.89206 5.96227 5.08639 6.95603 5.08639C7.94978 5.08736 8.75531 5.89304 8.75629 6.88697Z" stroke="#F5F5F5" stroke-width="1.5" stroke-linecap="round" stroke-linejoin="round"/>
</svg>
