<svg width="18" height="12" viewBox="0 0 18 12" fill="none" xmlns="http://www.w3.org/2000/svg">
<path d="M4.5 3.46872V2.45622H5.625V3.46872H4.5Z" fill="#006973"/>
<path d="M12.375 3.46872V2.45622H13.5V3.46872H12.375Z" fill="#006973"/>
<path d="M4.5 5.49372V4.48122H5.625V5.49372H4.5Z" fill="#006973"/>
<path d="M12.375 5.49372V4.48122H13.5V5.49372H12.375Z" fill="#006973"/>
<path d="M4.5 7.51872V6.50622H5.625V7.51872H4.5Z" fill="#006973"/>
<path d="M12.375 7.51872V6.50622H13.5V7.51872H12.375Z" fill="#006973"/>
<path d="M4.5 9.54372V8.53122H5.625V9.54372H4.5Z" fill="#006973"/>
<path d="M12.375 9.54372V8.53122H13.5V9.54372H12.375Z" fill="#006973"/>
<path fill-rule="evenodd" clip-rule="evenodd" d="M0.494257 0.869257C0.810725 0.55279 1.23995 0.375 1.6875 0.375H16.3125C16.7601 0.375 17.1893 0.55279 17.5057 0.869257C17.8222 1.18573 18 1.61495 18 2.0625V3.75C18 3.89918 17.9407 4.04226 17.8352 4.14775C17.7298 4.25324 17.5867 4.3125 17.4375 4.3125C16.9899 4.3125 16.5607 4.49029 16.2443 4.80676C15.9278 5.12322 15.75 5.55245 15.75 6C15.75 6.44755 15.9278 6.87678 16.2443 7.19324C16.5607 7.50971 16.9899 7.6875 17.4375 7.6875C17.5867 7.6875 17.7298 7.74676 17.8352 7.85225C17.9407 7.95774 18 8.10082 18 8.25V9.9375C18 10.3851 17.8222 10.8143 17.5057 11.1307C17.1893 11.4472 16.7601 11.625 16.3125 11.625H1.6875C1.23995 11.625 0.810725 11.4472 0.494257 11.1307C0.17779 10.8143 0 10.3851 0 9.9375V8.25C0 8.10082 0.0592632 7.95774 0.164752 7.85225C0.270242 7.74676 0.413316 7.6875 0.5625 7.6875C1.01005 7.6875 1.43928 7.50971 1.75574 7.19324C2.07221 6.87678 2.25 6.44755 2.25 6C2.25 5.55245 2.07221 5.12322 1.75574 4.80676C1.43928 4.49029 1.01005 4.3125 0.5625 4.3125C0.413316 4.3125 0.270242 4.25324 0.164752 4.14775C0.0592632 4.04226 0 3.89918 0 3.75V2.0625C0 1.61495 0.17779 1.18573 0.494257 0.869257ZM1.28975 1.66475C1.18426 1.77024 1.125 1.91332 1.125 2.0625V3.24375C1.76079 3.37285 2.33239 3.71779 2.74296 4.2201C3.15353 4.72242 3.37782 5.35124 3.37782 6C3.37782 6.64876 3.15353 7.27758 2.74296 7.7799C2.33239 8.28222 1.76079 8.62715 1.125 8.75625V9.9375C1.125 10.0867 1.18426 10.2298 1.28975 10.3352C1.39524 10.4407 1.53832 10.5 1.6875 10.5H16.3125C16.4617 10.5 16.6048 10.4407 16.7102 10.3352C16.8157 10.2298 16.875 10.0867 16.875 9.9375V8.75625C16.2392 8.62715 15.6676 8.28222 15.257 7.7799C14.8465 7.27758 14.6222 6.64876 14.6222 6C14.6222 5.35124 14.8465 4.72242 15.257 4.2201C15.6676 3.71779 16.2392 3.37285 16.875 3.24375V2.0625C16.875 1.91332 16.8157 1.77024 16.7102 1.66475C16.6048 1.55926 16.4617 1.5 16.3125 1.5H1.6875C1.53832 1.5 1.39524 1.55926 1.28975 1.66475Z" fill="#006973"/>
</svg>
