<svg width="18" height="17" viewBox="0 0 18 17" fill="none" xmlns="http://www.w3.org/2000/svg">
<path d="M3.34125 0.51875C3.44687 0.395264 3.57799 0.296125 3.72559 0.228153C3.87318 0.160181 4.03375 0.124989 4.19625 0.125H13.8038C13.9662 0.124989 14.1268 0.160181 14.2744 0.228153C14.422 0.296125 14.5531 0.395264 14.6587 0.51875L17.5939 3.94325C17.8559 4.24906 18 4.63851 18 5.04125V5.32812C18.0001 5.88497 17.8261 6.42793 17.5025 6.8811C17.1789 7.33427 16.7219 7.67502 16.1951 7.85571C15.6684 8.03641 15.0984 8.04802 14.5648 7.88893C14.0311 7.72984 13.5605 7.40799 13.2188 6.96838C12.9692 7.28986 12.6493 7.54997 12.2837 7.72879C11.9181 7.9076 11.5164 8.00037 11.1094 8C10.7024 8.00045 10.3006 7.90772 9.93501 7.7289C9.56937 7.55008 9.24953 7.28993 9 6.96838C8.75047 7.28993 8.43063 7.55008 8.06499 7.7289C7.69936 7.90772 7.29764 8.00045 6.89062 8C6.48361 8.00045 6.08189 7.90772 5.71626 7.7289C5.35062 7.55008 5.03078 7.28993 4.78125 6.96838C4.43947 7.40799 3.96887 7.72984 3.43523 7.88893C2.90159 8.04802 2.33158 8.03641 1.80486 7.85571C1.27815 7.67502 0.821051 7.33427 0.497455 6.8811C0.17386 6.42793 -6.14234e-05 5.88497 1.62726e-08 5.32812V5.04125C1.41835e-05 4.63851 0.144064 4.24906 0.406125 3.94325L3.34238 0.517625L3.34125 0.51875ZM5.34375 5.32812C5.34375 5.73838 5.50672 6.13184 5.79682 6.42193C6.08691 6.71203 6.48037 6.875 6.89062 6.875C7.30088 6.875 7.69434 6.71203 7.98443 6.42193C8.27453 6.13184 8.4375 5.73838 8.4375 5.32812C8.4375 5.17894 8.49676 5.03587 8.60225 4.93038C8.70774 4.82489 8.85082 4.76562 9 4.76562C9.14918 4.76562 9.29226 4.82489 9.39775 4.93038C9.50324 5.03587 9.5625 5.17894 9.5625 5.32812C9.5625 5.73838 9.72547 6.13184 10.0156 6.42193C10.3057 6.71203 10.6991 6.875 11.1094 6.875C11.5196 6.875 11.9131 6.71203 12.2032 6.42193C12.4933 6.13184 12.6562 5.73838 12.6562 5.32812C12.6562 5.17894 12.7155 5.03587 12.821 4.93038C12.9265 4.82489 13.0696 4.76562 13.2188 4.76562C13.3679 4.76562 13.511 4.82489 13.6165 4.93038C13.722 5.03587 13.7812 5.17894 13.7812 5.32812C13.7812 5.73838 13.9442 6.13184 14.2343 6.42193C14.5244 6.71203 14.9179 6.875 15.3281 6.875C15.7384 6.875 16.1318 6.71203 16.4219 6.42193C16.712 6.13184 16.875 5.73838 16.875 5.32812V5.04125C16.875 4.90718 16.8271 4.77752 16.74 4.67562L13.8038 1.25H4.19625L1.26 4.67562C1.17287 4.77752 1.12499 4.90718 1.125 5.04125V5.32812C1.125 5.73838 1.28797 6.13184 1.57807 6.42193C1.86816 6.71203 2.26162 6.875 2.67188 6.875C3.08213 6.875 3.47559 6.71203 3.76568 6.42193C4.05578 6.13184 4.21875 5.73838 4.21875 5.32812C4.21875 5.17894 4.27801 5.03587 4.3835 4.93038C4.48899 4.82489 4.63207 4.76562 4.78125 4.76562C4.93043 4.76562 5.07351 4.82489 5.179 4.93038C5.28449 5.03587 5.34375 5.17894 5.34375 5.32812ZM1.6875 8.5625C1.83668 8.5625 1.97976 8.62176 2.08525 8.72725C2.19074 8.83274 2.25 8.97582 2.25 9.125V15.875H3.375V10.25C3.375 9.95163 3.49353 9.66548 3.7045 9.4545C3.91548 9.24353 4.20163 9.125 4.5 9.125H7.875C8.17337 9.125 8.45952 9.24353 8.6705 9.4545C8.88147 9.66548 9 9.95163 9 10.25V15.875H15.75V9.125C15.75 8.97582 15.8093 8.83274 15.9148 8.72725C16.0202 8.62176 16.1633 8.5625 16.3125 8.5625C16.4617 8.5625 16.6048 8.62176 16.7102 8.72725C16.8157 8.83274 16.875 8.97582 16.875 9.125V15.875H17.4375C17.5867 15.875 17.7298 15.9343 17.8352 16.0398C17.9407 16.1452 18 16.2883 18 16.4375C18 16.5867 17.9407 16.7298 17.8352 16.8352C17.7298 16.9407 17.5867 17 17.4375 17H0.5625C0.413316 17 0.270242 16.9407 0.164752 16.8352C0.0592632 16.7298 1.62726e-08 16.5867 1.62726e-08 16.4375C1.62726e-08 16.2883 0.0592632 16.1452 0.164752 16.0398C0.270242 15.9343 0.413316 15.875 0.5625 15.875H1.125V9.125C1.125 8.97582 1.18426 8.83274 1.28975 8.72725C1.39524 8.62176 1.53832 8.5625 1.6875 8.5625ZM4.5 15.875H7.875V10.25H4.5V15.875ZM10.125 10.25C10.125 9.95163 10.2435 9.66548 10.4545 9.4545C10.6655 9.24353 10.9516 9.125 11.25 9.125H13.5C13.7984 9.125 14.0845 9.24353 14.2955 9.4545C14.5065 9.66548 14.625 9.95163 14.625 10.25V13.625C14.625 13.9234 14.5065 14.2095 14.2955 14.4205C14.0845 14.6315 13.7984 14.75 13.5 14.75H11.25C10.9516 14.75 10.6655 14.6315 10.4545 14.4205C10.2435 14.2095 10.125 13.9234 10.125 13.625V10.25ZM13.5 10.25H11.25V13.625H13.5V10.25Z" fill="#006973"/>
</svg>
