<svg width="20" height="19" viewBox="0 0 20 19" fill="none" xmlns="http://www.w3.org/2000/svg">
<path d="M6.625 8.875C6.625 9.17337 6.50647 9.45952 6.2955 9.6705C6.08452 9.88147 5.79837 10 5.5 10C5.20163 10 4.91548 9.88147 4.7045 9.6705C4.49353 9.45952 4.375 9.17337 4.375 8.875C4.375 8.57663 4.49353 8.29048 4.7045 8.0795C4.91548 7.86853 5.20163 7.75 5.5 7.75C5.79837 7.75 6.08452 7.86853 6.2955 8.0795C6.50647 8.29048 6.625 8.57663 6.625 8.875ZM11.125 8.875C11.125 9.17337 11.0065 9.45952 10.7955 9.6705C10.5845 9.88147 10.2984 10 10 10C9.70163 10 9.41548 9.88147 9.2045 9.6705C8.99353 9.45952 8.875 9.17337 8.875 8.875C8.875 8.57663 8.99353 8.29048 9.2045 8.0795C9.41548 7.86853 9.70163 7.75 10 7.75C10.2984 7.75 10.5845 7.86853 10.7955 8.0795C11.0065 8.29048 11.125 8.57663 11.125 8.875ZM14.5 10C14.7984 10 15.0845 9.88147 15.2955 9.6705C15.5065 9.45952 15.625 9.17337 15.625 8.875C15.625 8.57663 15.5065 8.29048 15.2955 8.0795C15.0845 7.86853 14.7984 7.75 14.5 7.75C14.2016 7.75 13.9155 7.86853 13.7045 8.0795C13.4935 8.29048 13.375 8.57663 13.375 8.875C13.375 9.17337 13.4935 9.45952 13.7045 9.6705C13.9155 9.88147 14.2016 10 14.5 10Z" fill="#006973"/>
<path d="M3.43563 17.6534L3.45812 17.6489C5.51687 17.2405 6.77462 16.7016 7.35962 16.4058C8.22091 16.6355 9.10861 16.7512 10 16.75C14.9703 16.75 19 13.2242 19 8.875C19 4.52575 14.9703 1 10 1C5.02975 1 1 4.52575 1 8.875C1 10.855 1.83588 12.6663 3.21625 14.05C3.11968 14.9389 2.9219 15.8138 2.62675 16.6578L2.62337 16.6701C2.5395 16.9119 2.44795 17.1508 2.34888 17.3867C2.26 17.596 2.43212 17.83 2.656 17.794C2.91662 17.7514 3.17653 17.7045 3.43563 17.6534ZM4.33562 14.1569C4.35138 13.9922 4.33062 13.826 4.27481 13.6703C4.219 13.5145 4.12952 13.373 4.01275 13.2557C2.82025 12.0588 2.125 10.5265 2.125 8.875C2.125 5.284 5.5045 2.125 10 2.125C14.4955 2.125 17.875 5.284 17.875 8.875C17.875 12.4671 14.4955 15.625 10 15.625C9.20699 15.6262 8.41725 15.5233 7.651 15.319C7.38322 15.2472 7.09839 15.2769 6.85113 15.4023C6.41575 15.6228 5.45612 16.0435 3.88787 16.4069C4.10666 15.6724 4.25656 14.9191 4.33562 14.1569Z" fill="#006973"/>
<path d="M6.625 8.875C6.625 9.17337 6.50647 9.45952 6.2955 9.6705C6.08452 9.88147 5.79837 10 5.5 10C5.20163 10 4.91548 9.88147 4.7045 9.6705C4.49353 9.45952 4.375 9.17337 4.375 8.875C4.375 8.57663 4.49353 8.29048 4.7045 8.0795C4.91548 7.86853 5.20163 7.75 5.5 7.75C5.79837 7.75 6.08452 7.86853 6.2955 8.0795C6.50647 8.29048 6.625 8.57663 6.625 8.875ZM11.125 8.875C11.125 9.17337 11.0065 9.45952 10.7955 9.6705C10.5845 9.88147 10.2984 10 10 10C9.70163 10 9.41548 9.88147 9.2045 9.6705C8.99353 9.45952 8.875 9.17337 8.875 8.875C8.875 8.57663 8.99353 8.29048 9.2045 8.0795C9.41548 7.86853 9.70163 7.75 10 7.75C10.2984 7.75 10.5845 7.86853 10.7955 8.0795C11.0065 8.29048 11.125 8.57663 11.125 8.875ZM14.5 10C14.7984 10 15.0845 9.88147 15.2955 9.6705C15.5065 9.45952 15.625 9.17337 15.625 8.875C15.625 8.57663 15.5065 8.29048 15.2955 8.0795C15.0845 7.86853 14.7984 7.75 14.5 7.75C14.2016 7.75 13.9155 7.86853 13.7045 8.0795C13.4935 8.29048 13.375 8.57663 13.375 8.875C13.375 9.17337 13.4935 9.45952 13.7045 9.6705C13.9155 9.88147 14.2016 10 14.5 10Z" stroke="#006973" stroke-width="0.5"/>
<path d="M3.43563 17.6534L3.45812 17.6489C5.51687 17.2405 6.77462 16.7016 7.35962 16.4058C8.22091 16.6355 9.10861 16.7512 10 16.75C14.9703 16.75 19 13.2242 19 8.875C19 4.52575 14.9703 1 10 1C5.02975 1 1 4.52575 1 8.875C1 10.855 1.83588 12.6663 3.21625 14.05C3.11968 14.9389 2.9219 15.8138 2.62675 16.6578L2.62337 16.6701C2.5395 16.9119 2.44795 17.1508 2.34888 17.3867C2.26 17.596 2.43212 17.83 2.656 17.794C2.91662 17.7514 3.17653 17.7045 3.43563 17.6534ZM4.33562 14.1569C4.35138 13.9922 4.33062 13.826 4.27481 13.6703C4.219 13.5145 4.12952 13.373 4.01275 13.2557C2.82025 12.0588 2.125 10.5265 2.125 8.875C2.125 5.284 5.5045 2.125 10 2.125C14.4955 2.125 17.875 5.284 17.875 8.875C17.875 12.4671 14.4955 15.625 10 15.625C9.20699 15.6262 8.41725 15.5233 7.651 15.319C7.38322 15.2472 7.09839 15.2769 6.85113 15.4023C6.41575 15.6228 5.45612 16.0435 3.88787 16.4069C4.10666 15.6724 4.25656 14.9191 4.33562 14.1569Z" stroke="#006973" stroke-width="0.5"/>
</svg>
