<svg width="5" height="9" viewBox="0 0 5 9" fill="none" xmlns="http://www.w3.org/2000/svg">
<path fill-rule="evenodd" clip-rule="evenodd" d="M0.740007 8.17389C0.713406 8.14818 0.69214 8.11748 0.677424 8.08354C0.662709 8.0496 0.654835 8.01308 0.654252 7.97609C0.653669 7.93911 0.660389 7.90236 0.674027 7.86798C0.687666 7.83359 0.707954 7.80223 0.733731 7.77569L3.85973 4.55016L0.633642 1.42473C0.607084 1.399 0.585854 1.36828 0.571166 1.33435C0.556477 1.30041 0.548617 1.26391 0.548034 1.22693C0.547452 1.18996 0.554158 1.15323 0.567769 1.11884C0.581381 1.08446 0.601632 1.05309 0.627367 1.02653C0.653101 0.999973 0.683814 0.978743 0.717753 0.964055C0.751691 0.949366 0.788191 0.941507 0.825167 0.940924C0.862144 0.940341 0.898873 0.947047 0.933257 0.960659C0.967642 0.97427 0.999009 0.994522 1.02557 1.02026L4.45333 4.34165C4.47993 4.36736 4.5012 4.39807 4.51591 4.43201C4.53063 4.46595 4.5385 4.50246 4.53909 4.53945C4.53967 4.57644 4.53295 4.61318 4.51931 4.64757C4.50567 4.68196 4.48538 4.71332 4.45961 4.73985L1.13821 8.16762C1.1125 8.19422 1.08179 8.21548 1.04785 8.2302C1.01391 8.24492 0.977399 8.25279 0.940409 8.25337C0.90342 8.25396 0.866678 8.24724 0.83229 8.2336C0.797902 8.21996 0.766542 8.19967 0.740007 8.17389Z" fill="#141414"/>
</svg>
