<svg width="9" height="5" viewBox="0 0 9 5" fill="none" xmlns="http://www.w3.org/2000/svg">
<path fill-rule="evenodd" clip-rule="evenodd" d="M0.131751 0.194129C0.163683 0.162117 0.201616 0.136718 0.243378 0.119389C0.28514 0.10206 0.329911 0.0931396 0.375126 0.0931396C0.420341 0.0931396 0.465112 0.10206 0.506874 0.119389C0.548637 0.136718 0.58657 0.162117 0.618501 0.194129L4.50013 4.07644L8.38175 0.194129C8.41371 0.162168 8.45165 0.136816 8.49341 0.119519C8.53517 0.102222 8.57993 0.0933196 8.62513 0.0933196C8.67033 0.0933196 8.71508 0.102222 8.75684 0.119519C8.7986 0.136816 8.83654 0.162168 8.8685 0.194129C8.90046 0.226089 8.92581 0.264032 8.94311 0.30579C8.96041 0.347549 8.96931 0.392305 8.96931 0.437504C8.96931 0.482703 8.96041 0.527459 8.94311 0.569218C8.92581 0.610976 8.90046 0.648919 8.8685 0.680879L4.7435 4.80588C4.71157 4.83789 4.67364 4.86329 4.63187 4.88062C4.59011 4.89795 4.54534 4.90687 4.50013 4.90687C4.45491 4.90687 4.41014 4.89795 4.36838 4.88062C4.32662 4.86329 4.28868 4.83789 4.25675 4.80588L0.131751 0.680879C0.099739 0.648948 0.0743408 0.611014 0.0570114 0.569252C0.0396819 0.52749 0.0307617 0.482719 0.0307617 0.437504C0.0307617 0.392289 0.0396819 0.347518 0.0570114 0.305756C0.0743408 0.263994 0.099739 0.22606 0.131751 0.194129Z" fill="#006973"/>
</svg>
