<svg width="14" height="14" viewBox="0 0 14 14" fill="none" xmlns="http://www.w3.org/2000/svg">
<path d="M7 13.125C5.37555 13.125 3.81763 12.4797 2.66897 11.331C1.52031 10.1824 0.875 8.62445 0.875 7C0.875 5.37555 1.52031 3.81763 2.66897 2.66897C3.81763 1.52031 5.37555 0.875 7 0.875C8.62445 0.875 10.1824 1.52031 11.331 2.66897C12.4797 3.81763 13.125 5.37555 13.125 7C13.125 8.62445 12.4797 10.1824 11.331 11.331C10.1824 12.4797 8.62445 13.125 7 13.125ZM7 14C8.85651 14 10.637 13.2625 11.9497 11.9497C13.2625 10.637 14 8.85651 14 7C14 5.14348 13.2625 3.36301 11.9497 2.05025C10.637 0.737498 8.85651 0 7 0C5.14348 0 3.36301 0.737498 2.05025 2.05025C0.737498 3.36301 0 5.14348 0 7C0 8.85651 0.737498 10.637 2.05025 11.9497C3.36301 13.2625 5.14348 14 7 14Z" fill="#212529"/>
<path d="M7.81375 5.7645L5.81 6.01562L5.73825 6.34812L6.132 6.42075C6.38925 6.482 6.44 6.57475 6.384 6.83113L5.73825 9.86562C5.5685 10.6505 5.83013 11.0197 6.44525 11.0197C6.92213 11.0197 7.476 10.7992 7.72713 10.4965L7.80412 10.1325C7.62912 10.2865 7.37362 10.3477 7.20387 10.3477C6.96325 10.3477 6.87575 10.1789 6.93787 9.88138L7.81375 5.7645ZM7.875 3.9375C7.875 4.16956 7.78281 4.39212 7.61872 4.55622C7.45462 4.72031 7.23206 4.8125 7 4.8125C6.76794 4.8125 6.54538 4.72031 6.38128 4.55622C6.21719 4.39212 6.125 4.16956 6.125 3.9375C6.125 3.70544 6.21719 3.48288 6.38128 3.31878C6.54538 3.15469 6.76794 3.0625 7 3.0625C7.23206 3.0625 7.45462 3.15469 7.61872 3.31878C7.78281 3.48288 7.875 3.70544 7.875 3.9375Z" fill="#212529"/>
</svg>
