<svg width="14" height="14" viewBox="0 0 14 14" fill="none" xmlns="http://www.w3.org/2000/svg">
<path d="M5.03737 0.437233C5.08668 0.466757 5.12968 0.505704 5.16393 0.551851C5.19818 0.597998 5.223 0.650439 5.23697 0.706181C5.25095 0.761922 5.25381 0.81987 5.24538 0.876716C5.23696 0.933562 5.21742 0.988191 5.18787 1.03748L2.96012 4.75011H11.0399L8.81125 1.03748C8.75161 0.937927 8.73396 0.818757 8.76218 0.706188C8.79041 0.59362 8.86219 0.496874 8.96175 0.437233C9.06131 0.377592 9.18048 0.359943 9.29305 0.388167C9.40561 0.416391 9.50236 0.488177 9.562 0.587733L12.0601 4.75011H13.125C13.3571 4.75011 13.5796 4.8423 13.7437 5.00639C13.9078 5.17048 14 5.39304 14 5.62511V6.50011C14 6.73217 13.9078 6.95473 13.7437 7.11883C13.5796 7.28292 13.3571 7.37511 13.125 7.37511V11.3126C13.125 11.8928 12.8945 12.4492 12.4843 12.8594C12.0741 13.2696 11.5177 13.5001 10.9375 13.5001H3.0625C2.48234 13.5001 1.92594 13.2696 1.5157 12.8594C1.10547 12.4492 0.875 11.8928 0.875 11.3126V7.37511C0.642936 7.37511 0.420376 7.28292 0.256282 7.11883C0.0921872 6.95473 0 6.73217 0 6.50011V5.62511C0 5.39304 0.0921872 5.17048 0.256282 5.00639C0.420376 4.8423 0.642936 4.75011 0.875 4.75011H1.93988L4.43625 0.587733C4.46577 0.53843 4.50472 0.495427 4.55087 0.46118C4.59701 0.426932 4.64946 0.402111 4.7052 0.388135C4.76094 0.37416 4.81889 0.371302 4.87573 0.379726C4.93258 0.388151 4.98721 0.407692 5.0365 0.437233H5.03737ZM1.75 7.37511V11.3126C1.75 11.6607 1.88828 11.9945 2.13442 12.2407C2.38056 12.4868 2.7144 12.6251 3.0625 12.6251H10.9375C11.2856 12.6251 11.6194 12.4868 11.8656 12.2407C12.1117 11.9945 12.25 11.6607 12.25 11.3126V7.37511H1.75ZM0.875 5.62511V6.50011H13.125V5.62511H0.875ZM3.5 8.25011C3.61603 8.25011 3.72731 8.2962 3.80936 8.37825C3.89141 8.4603 3.9375 8.57158 3.9375 8.68761V11.3126C3.9375 11.4286 3.89141 11.5399 3.80936 11.622C3.72731 11.704 3.61603 11.7501 3.5 11.7501C3.38397 11.7501 3.27269 11.704 3.19064 11.622C3.10859 11.5399 3.0625 11.4286 3.0625 11.3126V8.68761C3.0625 8.57158 3.10859 8.4603 3.19064 8.37825C3.27269 8.2962 3.38397 8.25011 3.5 8.25011ZM5.25 8.25011C5.36603 8.25011 5.47731 8.2962 5.55936 8.37825C5.64141 8.4603 5.6875 8.57158 5.6875 8.68761V11.3126C5.6875 11.4286 5.64141 11.5399 5.55936 11.622C5.47731 11.704 5.36603 11.7501 5.25 11.7501C5.13397 11.7501 5.02269 11.704 4.94064 11.622C4.85859 11.5399 4.8125 11.4286 4.8125 11.3126V8.68761C4.8125 8.57158 4.85859 8.4603 4.94064 8.37825C5.02269 8.2962 5.13397 8.25011 5.25 8.25011ZM7 8.25011C7.11603 8.25011 7.22731 8.2962 7.30936 8.37825C7.39141 8.4603 7.4375 8.57158 7.4375 8.68761V11.3126C7.4375 11.4286 7.39141 11.5399 7.30936 11.622C7.22731 11.704 7.11603 11.7501 7 11.7501C6.88397 11.7501 6.77269 11.704 6.69064 11.622C6.60859 11.5399 6.5625 11.4286 6.5625 11.3126V8.68761C6.5625 8.57158 6.60859 8.4603 6.69064 8.37825C6.77269 8.2962 6.88397 8.25011 7 8.25011ZM8.75 8.25011C8.86603 8.25011 8.97731 8.2962 9.05936 8.37825C9.14141 8.4603 9.1875 8.57158 9.1875 8.68761V11.3126C9.1875 11.4286 9.14141 11.5399 9.05936 11.622C8.97731 11.704 8.86603 11.7501 8.75 11.7501C8.63397 11.7501 8.52269 11.704 8.44064 11.622C8.35859 11.5399 8.3125 11.4286 8.3125 11.3126V8.68761C8.3125 8.57158 8.35859 8.4603 8.44064 8.37825C8.52269 8.2962 8.63397 8.25011 8.75 8.25011ZM10.5 8.25011C10.616 8.25011 10.7273 8.2962 10.8094 8.37825C10.8914 8.4603 10.9375 8.57158 10.9375 8.68761V11.3126C10.9375 11.4286 10.8914 11.5399 10.8094 11.622C10.7273 11.704 10.616 11.7501 10.5 11.7501C10.384 11.7501 10.2727 11.704 10.1906 11.622C10.1086 11.5399 10.0625 11.4286 10.0625 11.3126V8.68761C10.0625 8.57158 10.1086 8.4603 10.1906 8.37825C10.2727 8.2962 10.384 8.25011 10.5 8.25011Z" fill="#00838F"/>
</svg>
