<svg width="17" height="14" viewBox="0 0 17 14" fill="none" xmlns="http://www.w3.org/2000/svg">
<path d="M5.00195 8C5.39978 8 5.78131 7.84196 6.06261 7.56066C6.34392 7.27936 6.50195 6.89782 6.50195 6.5C6.50195 6.10218 6.34392 5.72064 6.06261 5.43934C5.78131 5.15804 5.39978 5 5.00195 5C4.60413 5 4.2226 5.15804 3.94129 5.43934C3.65999 5.72064 3.50195 6.10218 3.50195 6.5C3.50195 6.89782 3.65999 7.27936 3.94129 7.56066C4.2226 7.84196 4.60413 8 5.00195 8Z" fill="#9E9E9E"/>
<path d="M14.502 12C14.502 12.5304 14.2912 13.0391 13.9162 13.4142C13.5411 13.7893 13.0324 14 12.502 14H2.50195C1.97152 14 1.46281 13.7893 1.08774 13.4142C0.712667 13.0391 0.501953 12.5304 0.501953 12V4C0.501953 3.46991 0.712392 2.96151 1.08703 2.58649C1.46167 2.21148 1.96987 2.00053 2.49995 2C2.49995 1.46957 2.71067 0.960859 3.08574 0.585786C3.46081 0.210714 3.96952 0 4.49995 0H14.5C15.0304 0 15.5391 0.210714 15.9142 0.585786C16.2892 0.960859 16.5 1.46957 16.5 2V10C16.5 10.5301 16.2895 11.0385 15.9149 11.4135C15.5402 11.7885 15.032 11.9995 14.502 12ZM14.5 1H4.49995C4.23474 1 3.98038 1.10536 3.79285 1.29289C3.60531 1.48043 3.49995 1.73478 3.49995 2H12.502C13.0324 2 13.5411 2.21071 13.9162 2.58579C14.2912 2.96086 14.502 3.46957 14.502 4V11C14.7668 10.9995 15.0207 10.8939 15.2078 10.7064C15.3949 10.5189 15.5 10.2649 15.5 10V2C15.5 1.73478 15.3946 1.48043 15.2071 1.29289C15.0195 1.10536 14.7652 1 14.5 1ZM2.50195 3C2.23674 3 1.98238 3.10536 1.79485 3.29289C1.60731 3.48043 1.50195 3.73478 1.50195 4V12L4.14795 9.646C4.22969 9.56456 4.33707 9.5139 4.45189 9.5026C4.56672 9.4913 4.68191 9.52006 4.77795 9.584L7.43795 11.357L11.148 7.647C11.2221 7.57277 11.3177 7.52376 11.4213 7.50689C11.5248 7.49002 11.6311 7.50615 11.725 7.553L13.502 9.5V4C13.502 3.73478 13.3966 3.48043 13.2091 3.29289C13.0215 3.10536 12.7672 3 12.502 3H2.50195Z" fill="#9E9E9E"/>
</svg>
