<svg width="7" height="16" viewBox="0 0 7 16" fill="none" xmlns="http://www.w3.org/2000/svg">
<path d="M0.872888 15.1698C0.735113 14.9584 0.657715 14.6716 0.657715 14.3725C0.657715 14.0735 0.735113 13.7867 0.872888 13.5753L4.51071 7.99319L0.872887 2.41111C0.739017 2.19843 0.664941 1.91357 0.666616 1.61789C0.66829 1.32222 0.745581 1.03938 0.88184 0.830293C1.0181 0.62121 1.20242 0.502613 1.39512 0.500044C1.58781 0.497474 1.77345 0.611139 1.91206 0.816558L6.06946 7.19591C6.20724 7.40739 6.28464 7.69417 6.28464 7.99319C6.28464 8.29222 6.20724 8.579 6.06946 8.79047L1.91206 15.1698C1.77424 15.3812 1.58734 15.5 1.39247 15.5C1.1976 15.5 1.0107 15.3812 0.872888 15.1698Z" fill="#006973"/>
</svg>
