<svg width="19" height="22" viewBox="0 0 19 22" fill="none" xmlns="http://www.w3.org/2000/svg">
<path fill-rule="evenodd" clip-rule="evenodd" d="M18.923 11.8179C18.923 19.2897 9.49993 22 9.49993 22C9.49993 22 0.0768465 19.2897 0.0768465 11.8179C0.0768465 9.57461 0.0460779 7.95217 0.0234792 6.76054C-0.0292046 3.9825 -0.037486 3.54582 0.491993 3.04285C1.24736 2.32414 8.26432 0 9.49993 0C10.7355 0 17.7525 2.32414 18.5091 3.04285C19.0375 3.54559 19.0292 3.9821 18.9765 6.75673C18.9539 7.94872 18.923 9.57223 18.923 11.8179ZM14.071 8.92533C14.4307 8.58352 14.4305 8.02946 14.0707 7.68782C13.7108 7.34618 13.1276 7.34632 12.7679 7.68814L8.63213 11.6189L6.95984 10.0278C6.60038 9.68578 6.01712 9.68534 5.65709 10.0268C5.29706 10.3683 5.29659 10.9223 5.65605 11.2643L7.97989 13.4753C8.15263 13.6396 8.38705 13.732 8.63153 13.7321C8.87602 13.7321 9.11049 13.6399 9.28332 13.4756L14.071 8.92533Z" fill="#404040"/>
</svg>
